<svg width="15" height="15" viewBox="0 0 15 15" version="1.1" xmlns="http://www.w3.org/2000/svg" xmlns:xlink="http://www.w3.org/1999/xlink">
<title>Vector</title>
<desc>Created using Figma</desc>
<g id="Canvas" transform="translate(4027 4038)">
<g id="Vector">
<use xlink:href="#path0_fill" transform="translate(-4027 -4038)" fill="#FFFFFF"/>
</g>
</g>
<defs>
<path id="path0_fill" d="M 7.65306 6.42857L 7.65306 9L 11.9934 9C 11.8185 10.1036 10.6815 12.2357 7.65306 12.2357C 5.04009 12.2357 2.90816 10.1143 2.90816 7.5C 2.90816 4.88571 5.04009 2.76429 7.65306 2.76429C 9.13994 2.76429 10.1348 3.38571 10.7034 3.92143L 12.7806 1.96071C 11.4468 0.739286 9.71939 2.59503e-07 7.65306 2.59503e-07C 3.42201 2.59503e-07 1.324e-07 3.35357 1.324e-07 7.5C 1.324e-07 11.6464 3.42201 15 7.65306 15C 12.07 15 15 11.9571 15 7.67143C 15 7.17857 14.9453 6.80357 14.8797 6.42857L 7.65306 6.42857L 7.65306 6.42857Z"/>
</defs>
</svg>
